<svg width="18" height="24" viewBox="0 0 18 24" fill="none" xmlns="http://www.w3.org/2000/svg">
<path d="M14.8696 3.59766C14.0653 2.80942 13.1099 2.1921 12.0607 1.78289C11.0115 1.37367 9.89043 1.18103 8.76486 1.21656C6.59875 1.29574 4.54488 2.20006 3.02384 3.74431C1.5028 5.28856 0.629704 7.3559 0.58334 9.52296C0.553765 11.3692 1.14119 13.1724 2.25253 14.647C2.40634 14.8777 6.39218 20.4192 7.71859 22.2576C7.85862 22.4511 8.04227 22.6088 8.25464 22.7182C8.46702 22.8275 8.70216 22.8852 8.94101 22.8867H8.94796C9.18539 22.8863 9.41943 22.8304 9.63133 22.7233C9.84324 22.6162 10.0271 22.4609 10.1682 22.27C10.7849 21.4314 15.5918 14.8608 15.7185 14.7012C15.7258 14.6924 15.7324 14.6836 15.739 14.6741C16.8221 13.215 17.4103 11.4478 17.4177 9.6306C17.4215 8.50518 17.1977 7.39062 16.7598 6.35388C16.3219 5.31715 15.679 4.37963 14.8696 3.59766Z" stroke="#3A3A3A"/>
<path d="M9.00009 12C10.1599 12 11.1001 11.0598 11.1001 9.90005C11.1001 8.74025 10.1599 7.80005 9.00009 7.80005C7.84029 7.80005 6.90009 8.74025 6.90009 9.90005C6.90009 11.0598 7.84029 12 9.00009 12Z" fill="#3A3A3A"/>
</svg>
