<svg width="24" height="24" viewBox="0 0 24 24" fill="none" xmlns="http://www.w3.org/2000/svg">
<path d="M12.5308 20.4781L19.6434 13.1693C21.3908 11.3646 21.6455 8.414 19.9946 6.52814C19.5806 6.05289 19.0767 5.66938 18.5135 5.40102C17.9504 5.13267 17.34 4.98512 16.7195 4.96739C16.099 4.94966 15.4815 5.06211 14.9047 5.29788C14.328 5.53365 13.8041 5.88778 13.365 6.33865L12.0303 7.71921L10.88 6.52814C9.12376 4.73251 6.25238 4.47083 4.41715 6.16721C3.95466 6.59264 3.58145 7.11051 3.3203 7.68916C3.05916 8.26782 2.91557 8.89511 2.89831 9.53272C2.88105 10.1703 2.99049 10.8048 3.21993 11.3975C3.44936 11.9902 3.79399 12.5286 4.23275 12.9798L11.5298 20.4781C11.6629 20.6137 11.8428 20.6897 12.0303 20.6897C12.2177 20.6897 12.3976 20.6137 12.5308 20.4781Z" fill="url(#paint0_linear_4526_190)"/>
<defs>
<linearGradient id="paint0_linear_4526_190" x1="5.00006" y1="5.5" x2="22.3782" y2="16.2034" gradientUnits="userSpaceOnUse">
<stop stop-color="#45FFF4"/>
<stop offset="1" stop-color="#7000FF"/>
</linearGradient>
</defs>
</svg>
