<svg width="18" height="20" viewBox="0 0 18 20" fill="none" xmlns="http://www.w3.org/2000/svg">
<path d="M2.17903 7.34007C2.17776 6.43907 2.35477 5.54673 2.69984 4.71444C3.04492 3.88214 3.55125 3.12634 4.18967 2.49057C4.8281 1.85479 5.586 1.35161 6.41972 1.00999C7.25344 0.668382 8.14651 0.495092 9.04749 0.500106C12.8095 0.528606 15.821 3.65409 15.821 7.42557V8.10006C15.821 11.501 16.5335 13.477 17.1604 14.56C17.227 14.6754 17.2622 14.8062 17.2623 14.9394C17.2624 15.0725 17.2275 15.2034 17.1611 15.3189C17.0947 15.4343 16.9992 15.5303 16.884 15.5972C16.7689 15.6641 16.6381 15.6996 16.505 15.7H1.49504C1.36186 15.6996 1.23114 15.6641 1.11598 15.5972C1.00081 15.5303 0.905254 15.4343 0.838867 15.3189C0.772481 15.2034 0.737599 15.0725 0.737717 14.9394C0.737835 14.8062 0.772948 14.6754 0.839539 14.56C1.46654 13.477 2.17903 11.501 2.17903 8.10006V7.34007Z" stroke="#F5F5F5" stroke-linecap="round" stroke-linejoin="round"/>
<path d="M5.96009 15.7V16.46C5.96009 17.2663 6.28037 18.0395 6.85048 18.6096C7.42059 19.1797 8.19382 19.5 9.00007 19.5C9.80633 19.5 10.5796 19.1797 11.1497 18.6096C11.7198 18.0395 12.0401 17.2663 12.0401 16.46V15.7" stroke="#F5F5F5" stroke-linecap="round" stroke-linejoin="round"/>
</svg>
